<!DOCTYPE svg PUBLIC "-//W3C//DTD SVG 1.1//EN" "http://www.w3.org/Graphics/SVG/1.1/DTD/svg11.dtd">
<!-- Uploaded to: SVG Repo, www.svgrepo.com, Transformed by: SVG Repo Mixer Tools -->
<svg height="130px" width="130px" version="1.1" id="Layer_1" xmlns="http://www.w3.org/2000/svg" xmlns:xlink="http://www.w3.org/1999/xlink" viewBox="0 0 512 512" xml:space="preserve" fill="#000000">
<g id="SVGRepo_bgCarrier" stroke-width="0"/>
<g id="SVGRepo_tracerCarrier" stroke-linecap="round" stroke-linejoin="round"/>
<g id="SVGRepo_iconCarrier"> <path style="fill:#FFDA79;" d="M256,512C114.84,512,0,397.16,0,256S114.84,0,256,0c141.158,0,256,114.84,256,256 S397.158,512,256,512z"/> <path style="fill:#FFD155;" d="M256,0v512c141.158,0,256-114.84,256-256S397.158,0,256,0z"/> <g> <path style="fill:#6A82A1;" d="M256,0c-6.3,0-12.545,0.239-18.732,0.688v66.555c0,10.345,8.387,18.732,18.732,18.732 c10.345,0,18.732-8.387,18.732-18.732V0.688C268.544,0.239,262.3,0,256,0z"/> <path style="fill:#6A82A1;" d="M256,426.024c-10.345,0-18.732,8.387-18.732,18.732v66.555c6.186,0.45,12.432,0.688,18.732,0.688 c6.3,0,12.544-0.239,18.732-0.688v-66.555C274.732,434.411,266.345,426.024,256,426.024z"/> <path style="fill:#6A82A1;" d="M67.244,237.268H0.688C0.239,243.456,0,249.7,0,256c0,6.3,0.239,12.544,0.688,18.732h66.555 c10.345,0,18.732-8.387,18.732-18.732C85.975,245.655,77.589,237.268,67.244,237.268z"/> </g> <path style="fill:#65C6BB;" d="M319.468,274.732h-63.473c-10.345,0-18.732-8.387-18.732-18.732V141.846 c0-10.345,8.387-18.732,18.732-18.732c10.346,0,18.732,8.387,18.732,18.732v95.422h44.74c10.345,0,18.732,8.387,18.732,18.732 C338.198,266.345,329.813,274.732,319.468,274.732z"/> <g> <path style="fill:#36495E;" d="M256,0v85.976c10.345,0,18.732-8.387,18.732-18.732V0.688C268.544,0.239,262.3,0,256,0z"/> <path style="fill:#36495E;" d="M256,426.024V512c6.3,0,12.544-0.239,18.732-0.688v-66.555 C274.732,434.411,266.345,426.024,256,426.024z"/> <path style="fill:#36495E;" d="M426.024,256c0,10.345,8.387,18.732,18.732,18.732h66.555c0.895-12.327,0.939-24.547,0-37.463 h-66.555C434.411,237.268,426.024,245.655,426.024,256z"/> </g> <path style="fill:#20B8AE;" d="M319.468,237.268h-44.74v-95.422c0-10.344-8.384-18.729-18.728-18.732v151.617h63.468 c10.345,0,18.732-8.387,18.732-18.732C338.2,245.655,329.813,237.268,319.468,237.268z"/> </g>
</svg>