<!DOCTYPE svg PUBLIC "-//W3C//DTD SVG 1.1//EN" "http://www.w3.org/Graphics/SVG/1.1/DTD/svg11.dtd">
<!-- Uploaded to: SVG Repo, www.svgrepo.com, Transformed by: SVG Repo Mixer Tools -->
<svg version="1.1" id="Layer_1" xmlns="http://www.w3.org/2000/svg" xmlns:xlink="http://www.w3.org/1999/xlink" viewBox="0 0 511.999 511.999" xml:space="preserve" width="130px" height="130px" fill="#000000">
<g id="SVGRepo_bgCarrier" stroke-width="0"/>
<g id="SVGRepo_tracerCarrier" stroke-linecap="round" stroke-linejoin="round"/>
<g id="SVGRepo_iconCarrier"> <rect x="312.606" y="322.647" transform="matrix(0.7071 -0.7071 0.7071 0.7071 -146.7076 334.3257)" style="fill:#009099;" width="35.214" height="43.215"/> <rect x="320.479" y="352.025" transform="matrix(0.7071 -0.7071 0.7071 0.7071 -160.0543 367.2567)" width="85.623" height="49.612"/> <rect x="381.923" y="375.856" transform="matrix(0.7071 -0.7071 0.7071 0.7071 -185.2214 428.5828)" style="fill:#009099;" width="85.623" height="124.035"/> <circle cx="201.186" cy="188.047" r="188.047"/> <circle style="fill:#EFEFEF;" cx="201.186" cy="188.047" r="158.443"/> <path style="fill:#FFFFFF;" d="M187.581,291.959v-24.182c-15.167-0.433-30.055-4.18-43.62-10.979l7.706-29.8 c13.071,7.158,27.695,11.004,42.595,11.203c14.62,0,24.63-5.602,24.63-15.78c0-9.682-8.21-15.804-27.208-22.174 c-27.448-9.17-46.188-21.902-46.188-46.604c0-22.406,15.916-40.011,43.364-45.332V84.134h25.127v22.406 c12.849,0.195,25.517,3.057,37.202,8.402l-7.434,28.808c-11.513-5.619-24.142-8.582-36.954-8.666 c-16.669,0-22.062,7.138-22.062,14.267c0,8.402,8.986,13.747,30.792,21.902c30.52,10.699,42.844,24.702,42.844,47.637 c0,22.67-16.172,42.02-45.668,47.117v25.967L187.581,291.959z"/> <path style="fill:#939393;" d="M215.733,294.959h-31.144v-24.343c-14.67-0.732-29.021-4.549-42.116-11.203l-1.984-1.137 l9.243-35.729l3.377,1.833c12.642,6.886,26.768,10.596,41.163,10.811c5.073,0,21.606-0.921,21.606-12.803 c0-6.538-4.273-12.332-25.159-19.334c-22.454-7.498-48.229-19.894-48.229-49.445c0-23.574,16.54-41.7,43.364-47.773V81.03h31.136 v22.574c12.28,0.511,24.343,3.412,35.513,8.538l2.217,1.072l-8.914,34.529l-5.137-2.169c-10.596-4.974-22.152-7.569-33.857-7.602 c-12.291,0-19.061,4.001-19.061,11.267c0,6.217,7.274,11.035,28.808,19.094c31.384,10.995,44.812,26.087,44.812,50.414 c0,24.63-17.836,43.884-45.668,49.614L215.733,294.959z M190.581,288.957h19.149v-25.487l2.497-0.432 c26.631-4.609,43.211-21.526,43.211-44.164c0-21.662-11.835-34.641-40.811-44.812c-22.238-8.314-32.809-14.123-32.809-24.734 c0-4.049,1.808-17.269,25.063-17.269c12.045-0.013,23.952,2.555,34.921,7.53l5.93-22.975c-10.733-4.435-22.198-6.837-33.809-7.082 l-2.865-0.128V87.151h-19.181v23.671l-2.4,0.473c-25.606,4.993-40.931,20.806-40.931,42.411c0,20.333,13.196,33.417,44.14,43.756 c17.556,5.89,29.247,12.395,29.247,25.014c0,11.587-10.587,18.781-27.632,18.781c-14.107-0.182-27.992-3.534-40.627-9.811 l-6.178,23.894c12.652,5.769,26.321,8.984,40.219,9.459l2.865,0.128L190.581,288.957L190.581,288.957z"/> </g>
</svg>