<!DOCTYPE svg PUBLIC "-//W3C//DTD SVG 1.1//EN" "http://www.w3.org/Graphics/SVG/1.1/DTD/svg11.dtd">
<!-- Uploaded to: SVG Repo, www.svgrepo.com, Transformed by: SVG Repo Mixer Tools -->
<svg height="130px" width="130px" version="1.1" id="Layer_1" xmlns="http://www.w3.org/2000/svg" xmlns:xlink="http://www.w3.org/1999/xlink" viewBox="0 0 512 512" xml:space="preserve" fill="#000000">
<g id="SVGRepo_bgCarrier" stroke-width="0"/>
<g id="SVGRepo_tracerCarrier" stroke-linecap="round" stroke-linejoin="round"/>
<g id="SVGRepo_iconCarrier"> <path style="fill:#e9b82f;" d="M353.236,209.179l-21.057-91.278C317.68,55.122,261.305,8.17,194.179,8.17l74.61,277.787h23.432 c34.598,0,62.638-28.04,62.638-62.638C354.86,218.45,354.282,213.722,353.236,209.179z"/> <path style="fill:#f2df64;" d="M315.229,209.179c0.795,4.543,1.231,9.27,1.231,14.14c0,34.598-21.341,62.638-47.67,62.638H96.136 c-34.598,0-62.638-28.04-62.638-62.638c0-4.869,0.577-9.597,1.623-14.14l21.057-91.278c14.499-62.78,70.874-109.731,138-109.731 c51.091,0,93.979,46.951,105.014,109.731L315.229,209.179z"/> <path style="fill:#FFC5BF;" d="M251.948,57.42c-3.246,2.582-6.558,5.098-9.924,7.527l-47.845,221.01 c60.165,0,108.936-48.771,108.936-108.936v-27.234C303.115,110.853,282.678,76.68,251.948,57.42z"/> <path style="fill:#FFD8D4;" d="M270.434,149.787v27.234c0,60.165-34.141,108.936-76.255,108.936 c-60.165,0-108.936-48.771-108.936-108.936v-27.234c0-11.417,1.754-22.43,5.011-32.768c56.592-1.972,108.838-20.992,151.77-52.071 C259.344,84.916,270.434,115.505,270.434,149.787z"/> <path style="fill:#708320;" d="M306.873,356.875h-30.491l70.307,146.955h32.681C379.37,443.958,350.96,390.721,306.873,356.875z"/> <path style="fill:#2eb2aa;" d="M298.169,368.357L81.484,356.875C37.398,390.721,8.987,443.958,8.987,503.83h337.702 C346.689,450.353,328.018,402.16,298.169,368.357z"/> <path style="fill:#3C4F0D;" d="M279.334,339.336h-26.918v29.021h45.753c3.094-3.671,6.002-7.495,8.704-11.482 C298.256,350.252,289.051,344.38,279.334,339.336z"/> <path style="fill:#009099;" d="M274.181,346.145l-165.158-6.809c-9.717,5.044-18.922,10.915-27.539,17.539 c24.522,36.069,65.885,59.806,112.694,59.806c41.646,0,78.979-18.792,103.99-48.324 C290.816,360.034,282.787,352.583,274.181,346.145z"/> <path style="fill:#FFC5BF;" d="M196.15,318.649l78.031,27.495c1.819-2.201,3.53-4.466,5.153-6.809 C254.388,326.395,226.119,318.965,196.15,318.649z"/> <path style="fill:#FFD8D4;" d="M196.15,318.649c28.596,0.447,55.296,10.447,78.031,27.495C255.216,369.25,226.424,384,194.179,384 c-35.306,0-66.484-17.68-85.155-44.664c25.491-13.225,54.457-20.698,85.155-20.698C194.832,318.638,195.497,318.638,196.15,318.649z "/> <circle cx="105.995" cy="462.979" r="8.17"/> <circle cx="73.314" cy="430.298" r="8.17"/> <path style="fill:#E4D1F3;" d="M368.182,231.5v272.319c74.589-0.708,134.83-61.396,134.83-136.159S442.771,232.208,368.182,231.5z"/> <path style="fill:#F1E8F9;" d="M368.182,231.5c56.538,0.948,102.149,61.538,102.149,136.159S424.72,502.871,368.182,503.819 c-0.447,0.011-0.893,0.011-1.34,0.011c-75.21,0-136.17-60.961-136.17-136.17c0-26.798,7.745-51.777,21.112-72.846l-21.112-63.325 l63.325,21.112c21.068-13.366,46.047-21.112,72.846-21.112C367.289,231.489,367.736,231.489,368.182,231.5z"/> <circle cx="334.162" cy="367.66" r="8.17"/> <circle cx="366.843" cy="367.66" r="8.17"/> <circle cx="399.523" cy="367.66" r="8.17"/> <path d="M173.481,155.234v-5.447c0-4.512-3.657-8.17-8.17-8.17h-21.787c-4.513,0-8.17,3.658-8.17,8.17s3.657,8.17,8.17,8.17h14.082 c1.121,3.173,4.148,5.447,7.705,5.447C169.824,163.404,173.481,159.746,173.481,155.234z"/> <path d="M244.834,141.617h-21.787c-4.513,0-8.17,3.658-8.17,8.17v5.447c0,4.512,3.657,8.17,8.17,8.17 c3.558,0,6.584-2.273,7.705-5.447h14.082c4.513,0,8.17-3.658,8.17-8.17S249.347,141.617,244.834,141.617z"/> <path d="M214.89,191.11c-4.247-1.51-8.922,0.709-10.434,4.962c-1.543,4.338-5.672,7.252-10.277,7.252s-8.734-2.914-10.277-7.252 c-1.511-4.252-6.186-6.471-10.434-4.962c-4.252,1.512-6.473,6.183-4.962,10.435c3.852,10.838,14.169,18.119,25.672,18.119 c11.503,0,21.82-7.281,25.672-18.119C221.363,197.293,219.141,192.622,214.89,191.11z"/> <path d="M366.843,223.319c-1.273,0-2.544,0.031-3.814,0.064c0-0.022,0.001-0.042,0.001-0.064c0-5.334-0.616-10.708-1.832-15.974 l-21.061-91.279c-7.492-32.439-25.993-61.892-52.097-82.934C261.536,11.766,228.202,0,194.179,0 c-34.024,0-67.358,11.766-93.863,33.132c-26.103,21.042-44.604,50.496-52.095,82.935l-21.062,91.278 c-1.215,5.264-1.831,10.638-1.831,15.974c0,39.044,31.765,70.809,70.809,70.809h146.491c-3.848,6.487-7.154,13.242-9.921,20.198 c-12.624-2.55-25.549-3.857-38.527-3.857c-31.69,0-61.623,7.664-88.045,21.234c-0.609,0.231-1.202,0.528-1.76,0.916 c-0.021,0.014-0.039,0.032-0.06,0.046c-9.423,4.967-18.388,10.687-26.816,17.084c-0.204,0.114-0.406,0.233-0.604,0.367 c-0.474,0.321-0.901,0.685-1.284,1.081C30.127,386.608,0.817,441.857,0.817,503.83c0,4.512,3.657,8.17,8.17,8.17 s8.17-3.658,8.17-8.17c0-54.122,24.422-102.64,62.816-135.136c27.311,35.321,69.367,56.158,114.205,56.158 c3.86,0,7.762-0.156,11.597-0.462c4.498-0.359,7.853-4.296,7.495-8.794c-0.358-4.497-4.265-7.856-8.794-7.494 c-3.406,0.272-6.872,0.41-10.298,0.41c-39.748,0-77.036-18.473-101.264-49.793c4.465-3.125,9.078-6.054,13.829-8.764 c21.121,26.561,53.275,42.216,87.434,42.216c10.153,0,20.13-1.355,29.784-4.023C233.943,458.067,294.207,512,366.843,512 c79.59,0,144.34-64.751,144.34-144.34S446.432,223.319,366.843,223.319z M96.136,277.787c-30.034,0-54.468-24.434-54.468-54.468 c0-4.101,0.476-8.24,1.412-12.301l21.062-91.275C77.979,59.828,132.667,16.34,194.179,16.34 c61.511,0,116.199,43.487,130.037,103.401l21.061,91.278c0.937,4.063,1.413,8.202,1.413,12.3c0,0.473-0.012,0.946-0.024,1.418 c-18.957,2.661-37.194,9.054-53.699,18.905l-2.035-0.679c13.18-19.344,20.355-42.349,20.355-65.942v-27.234 c0-40.585-20.558-77.703-54.993-99.289c-2.934-1.84-6.712-1.63-9.423,0.526c-45.073,35.826-99.325,55.822-156.89,57.829 c-3.458,0.121-6.464,2.406-7.507,5.705c-3.584,11.35-5.401,23.202-5.401,35.229v27.234c0,42.823,23.109,80.344,57.505,100.766 H96.136z M233.256,223.739c-2.935-0.977-6.172-0.215-8.362,1.974c-2.189,2.189-2.952,5.425-1.974,8.361l11.747,35.236 c-12.682,5.556-26.543,8.477-40.488,8.477c-55.563,0-100.766-45.203-100.766-100.766v-27.234c0-8.447,1.039-16.789,3.095-24.872 c56.883-3.152,110.519-22.92,155.819-57.434c26.792,18.912,42.618,49.275,42.618,82.306v27.234c0,21.87-7.157,43.153-20.227,60.537 L233.256,223.739z M194.179,375.83c-28.04,0-54.496-12.362-72.522-33.474c22.145-9.985,46.695-15.547,72.522-15.547 c11.218,0,22.387,1.069,33.321,3.148c-3.297,12.211-4.998,24.874-4.998,37.703c0,1.289,0.019,2.574,0.052,3.855 C213.407,374.366,203.891,375.83,194.179,375.83z M366.843,495.66c-70.58,0-128-57.42-128-128c0-24.334,6.86-48.01,19.838-68.467 c1.316-2.074,1.629-4.63,0.852-6.96l-2.901-8.702c-0.003-0.009-13.042-39.123-13.042-39.123l31.473,10.491 c0.041,0.013,0.083,0.028,0.124,0.041l16.229,5.41c2.332,0.776,4.887,0.464,6.961-0.852c20.456-12.978,44.132-19.837,68.466-19.837 c70.58,0,128,57.42,128,128S437.422,495.66,366.843,495.66z"/> </g>
</svg>