<svg xmlns="http://www.w3.org/2000/svg" xmlns:xlink="http://www.w3.org/1999/xlink" viewBox="0,0,255.99431,255.99431" width="73px" height="73px"><g fill="#009099" fill-rule="nonzero" stroke="none" stroke-width="1" stroke-linecap="butt" stroke-linejoin="miter" stroke-miterlimit="10" stroke-dasharray="" stroke-dashoffset="0" font-family="none" font-weight="none" font-size="none" text-anchor="none" style="mix-blend-mode: normal"><g transform="scale(4,4)"><path d="M32.23047,5c-8.382,-0.1 -15.7318,5.59359 -18.3418,13.55859c-2.761,8.425 1.49738,15.08163 4.73438,20.14063c1.391,2.174 2.63763,4.12122 3.14063,5.82422c0.256,0.867 1.02178,1.47656 1.92578,1.47656h1.31055c0,-2.901 -1.78361,-5.68897 -3.84961,-8.91797c-2.415,-3.773 -5.15039,-8.04903 -5.15039,-13.08203c0,-8.75 7.0592,-15.882 15.7832,-16c6.876,-0.091 12.81309,4.41566 15.24609,10.84766c2.782,7.355 -0.98069,13.23537 -4.17969,18.23438c-2.066,3.229 -3.84961,6.01697 -3.84961,8.91797h1.31055c0.904,0 1.66978,-0.61056 1.92578,-1.47656c0.504,-1.703 1.74963,-3.64827 3.14063,-5.82227c2.506,-3.916 5.62305,-8.79017 5.62305,-14.70117c0,-10.4 -8.39953,-18.875 -18.76953,-19zM8.6543,6.54883l-1.84375,2.36719l4.53516,3.53516l1.84375,-2.36719zM55.34766,6.55273l-4.53711,3.5332l1.84375,2.36719l4.53711,-3.53516zM2,23v3h5v-3zM57,23v3h5v-3zM26.80273,24.75586l-0.35547,0.20117c-1.24,0.706 -1.76572,2.20797 -1.26172,3.54297c1.127,2.985 2.81445,8.889 2.81445,17.5h3c0,-13.74 -4.02627,-20.94314 -4.19727,-21.24414zM37.19727,24.75586c-0.171,0.3 -4.19727,7.50414 -4.19727,21.24414h3c0,-8.612 1.6865,-14.517 2.8125,-17.5c0.504,-1.333 -0.01886,-2.83206 -1.25586,-3.53906zM52.6543,35.54883l-1.84375,2.36719l4.53516,3.53516l1.84375,-2.36719zM11.34375,35.55078l-4.53516,3.53516l1.84375,2.36523l4.53516,-3.5332zM23,49l0.60938,4.26172c0.235,1.648 1.4668,2.97689 3.0918,3.33789l1.41406,0.31445c0.41469,1.76691 1.99143,3.08594 3.88477,3.08594c1.89334,0 3.47008,-1.31903 3.88477,-3.08594l1.41406,-0.31445c1.625,-0.361 2.8568,-1.68989 3.0918,-3.33789l0.60938,-4.26172h-8h-2z"></path></g></g></svg>