<?xml version="1.0" standalone="no"?>
<!DOCTYPE svg PUBLIC "-//W3C//DTD SVG 20010904//EN"
 "http://www.w3.org/TR/2001/REC-SVG-20010904/DTD/svg10.dtd">
<svg version="1.0" xmlns="http://www.w3.org/2000/svg"
 width="855.000000pt" height="855.000000pt" viewBox="0 0 855.000000 855.000000"
 preserveAspectRatio="xMidYMid meet">
<metadata>
Created by potrace 1.14, written by Peter Selinger 2001-2017
</metadata>
<g transform="translate(0.000000,855.000000) scale(0.100000,-0.100000)"
fill="#000000" stroke="none">
<path d="M530 6372 c-14 -1 -35 -5 -47 -7 l-23 -5 0 -2109 c0 -1914 1 -2109
16 -2115 26 -10 645 -7 678 3 17 5 51 15 75 22 24 7 49 19 57 26 7 7 16 13 19
13 15 0 78 77 97 120 29 61 30 179 3 234 -21 44 -85 112 -114 121 -21 6 -37
35 -20 35 39 0 119 152 114 215 -5 50 -25 115 -37 115 -4 0 -8 5 -8 11 0 15
-74 89 -89 89 -6 0 -11 5 -11 10 0 6 -9 10 -21 10 -11 0 -30 6 -42 13 -15 8
-94 14 -247 17 l-225 5 -1 50 c-1 70 3 78 38 71 16 -3 38 0 48 7 20 12 20 33
20 1520 l0 1507 -26 12 c-19 9 -33 9 -56 0 -19 -7 -36 -8 -42 -3 -12 10 -113
18 -156 13z m558 -3386 c62 -32 74 -118 23 -166 -16 -16 -41 -32 -53 -35 -46
-12 -339 -12 -346 -1 -8 13 -13 173 -5 199 4 15 21 17 179 17 131 0 182 -4
202 -14z m-140 -409 c90 -2 157 -8 160 -14 4 -6 16 -13 27 -17 28 -8 55 -57
55 -96 0 -41 -26 -85 -59 -100 -14 -7 -33 -16 -41 -20 -21 -10 -380 -13 -381
-3 -5 31 -4 234 0 241 9 13 31 18 60 15 14 -1 95 -4 179 -6z"/>
<path d="M1595 6367 c-14 -5 -26 -12 -26 -15 -6 -29 -3 -3016 3 -3025 8 -14
205 -18 231 -5 16 8 17 91 17 1523 0 833 -1 1515 -2 1516 -18 7 -205 12 -223
6z"/>
<path d="M1945 6372 c-32 -2 -55 -9 -62 -19 -10 -13 -13 -332 -13 -1514 0
-1379 1 -1498 17 -1510 19 -17 330 -22 351 -6 17 13 18 3032 1 3043 -12 7
-207 11 -294 6z"/>
<path d="M2385 6370 l-60 -5 -3 -1514 c-1 -1016 1 -1518 8 -1526 9 -11 83 -13
158 -6 10 1 12 309 10 1523 l-3 1522 -25 5 c-14 3 -52 4 -85 1z"/>
<path d="M2745 6372 c-38 -2 -75 -8 -82 -14 -18 -15 -19 -4198 -1 -4216 8 -8
48 -12 114 -12 89 0 103 2 107 18 3 9 4 100 3 202 -1 102 2 193 6 203 11 22
110 24 163 1 34 -14 150 -114 132 -114 -4 0 9 -17 28 -37 19 -20 35 -41 35
-46 0 -4 11 -23 25 -41 14 -18 25 -38 25 -43 0 -6 7 -13 15 -17 8 -3 15 -12
15 -21 0 -8 5 -15 10 -15 6 0 10 -5 10 -11 0 -6 6 -16 13 -23 6 -8 19 -23 27
-35 13 -19 23 -21 137 -21 77 0 124 4 129 11 7 12 -25 79 -38 79 -5 0 -8 7 -8
15 0 8 -3 15 -8 15 -4 0 -16 16 -27 36 -10 19 -29 48 -42 62 -13 15 -23 31
-23 35 0 27 -149 197 -172 197 -6 0 -3 9 7 20 10 11 21 18 24 15 4 -2 25 4 47
14 68 31 144 120 144 169 0 12 4 23 8 26 20 12 7 153 -19 196 -5 8 -12 22 -16
30 -10 22 -79 90 -91 90 -6 0 -12 4 -14 9 -1 6 -14 12 -28 15 -14 3 -41 10
-60 15 -20 6 -124 11 -237 11 -183 0 -203 2 -211 18 -4 9 -7 717 -7 1572 1
855 -1 1564 -5 1574 -7 21 -22 23 -135 18z m553 -3399 c32 -28 37 -47 33 -130
-1 -22 -6 -33 -16 -33 -8 0 -15 -4 -15 -8 0 -5 -17 -17 -37 -26 -32 -14 -66
-16 -203 -14 l-165 3 -2 105 c-1 58 0 111 3 118 2 9 49 12 187 12 l183 0 32
-27z"/>
<path d="M3262 6367 c-12 -6 -23 -13 -23 -16 -1 -3 -2 -684 -3 -1513 l-1
-1508 25 -10 c29 -11 55 -9 72 8 9 9 12 358 13 1500 0 818 -2 1498 -5 1511 -7
29 -45 43 -78 28z"/>
<path d="M3560 6372 c-25 -2 -49 -7 -54 -12 -10 -10 -13 -3027 -2 -3037 10
-10 346 -11 346 -1 0 4 6 8 13 8 9 0 12 306 11 1497 0 824 -4 1508 -8 1521 -5
15 -16 22 -34 23 -189 3 -233 4 -272 1z"/>
<path d="M4212 6364 l-32 -13 0 -1510 c0 -1495 0 -1510 20 -1521 22 -12 70 -6
80 10 4 6 7 688 7 1516 l0 1504 -22 14 c-18 12 -26 12 -53 0z"/>
<path d="M4682 6372 c-57 -3 -64 -5 -73 -28 -12 -34 -12 -2993 1 -3014 10 -17
150 -25 150 -9 0 5 6 9 13 9 10 0 12 305 11 1508 -1 829 -2 1509 -3 1512 -4
16 -44 25 -99 22z"/>
<path d="M5018 6375 c-2 -2 -20 -5 -41 -7 -32 -2 -37 -5 -37 -28 -4 -211 0
-3013 3 -3017 15 -14 80 -14 101 1 l24 15 1 1493 c0 821 -2 1501 -5 1511 -5
17 -38 40 -46 32z"/>
<path d="M5130 6366 c-20 -9 -20 -14 -21 -1470 0 -804 -1 -1481 -3 -1504 -3
-67 9 -76 101 -78 43 0 85 4 94 10 14 10 16 151 16 1523 l0 1513 -34 6 c-53
10 -131 10 -153 0z"/>
<path d="M5508 6372 c-31 -3 -38 -7 -39 -25 -5 -133 -2 -3012 3 -3020 12 -19
235 -17 251 1 18 22 19 3002 0 3027 -10 14 -29 18 -95 19 -46 1 -100 0 -120
-2z"/>
<path d="M6165 6370 l-40 -5 -3 -2118 -2 -2118 290 1 c170 1 292 5 295 11 4 5
16 9 28 9 29 0 117 32 117 42 0 4 7 8 15 8 19 0 135 116 135 136 0 8 7 17 15
20 8 4 15 17 15 30 0 13 4 24 9 24 5 0 11 18 15 40 3 22 10 40 15 40 5 0 10
71 10 158 1 128 -3 167 -18 210 -10 29 -21 55 -25 59 -3 3 -6 13 -6 20 0 18
-76 121 -114 155 -31 27 -101 68 -116 68 -5 0 -21 5 -37 12 -15 6 -31 12 -35
13 -5 2 -91 3 -193 4 l-185 1 0 1584 c0 1173 -3 1587 -11 1592 -14 8 -119 11
-174 4z m534 -3390 c51 -25 101 -68 101 -86 0 -8 5 -14 10 -14 6 0 10 -10 10
-22 0 -13 7 -35 14 -50 19 -36 16 -253 -5 -319 -41 -133 -108 -166 -340 -169
-108 -1 -127 1 -133 15 -3 9 -6 163 -6 341 l0 324 155 0 c135 0 161 -3 194
-20z"/>
<path d="M6677 6370 c-20 -4 -40 -9 -43 -13 -3 -3 -6 -683 -6 -1511 0 -1250 2
-1508 14 -1518 16 -16 75 -20 98 -8 16 8 17 117 15 1522 -1 832 -2 1516 -3
1519 -3 12 -36 15 -75 9z"/>
<path d="M7040 6370 l-35 -5 -3 -1522 -2 -1521 27 -6 c37 -7 125 -2 141 8 9 6
12 335 12 1521 l0 1514 -21 6 c-28 9 -76 11 -119 5z"/>
<path d="M7292 6369 c-24 -3 -48 -12 -53 -20 -14 -23 -12 -4192 3 -4207 9 -9
119 -12 434 -12 375 0 423 2 428 16 10 26 7 162 -4 169 -5 3 -144 6 -309 5
-231 0 -300 2 -308 12 -11 15 -11 238 1 256 5 9 75 12 278 11 217 -1 272 2
279 12 12 20 11 136 -1 160 -10 18 -24 19 -285 19 -151 0 -275 3 -276 8 -5 36
-3 195 3 198 4 3 134 5 290 5 208 1 288 4 303 14 18 11 20 21 17 93 l-4 82
-306 2 -307 3 -2 90 c-2 67 -3 2597 -2 2875 1 206 -1 212 -82 214 -30 0 -74
-2 -97 -5z"/>
<path d="M7527 6355 c-15 -27 -17 -3018 -2 -3032 13 -12 154 -11 173 0 9 7 12
322 12 1522 l0 1514 -22 7 c-13 4 -52 7 -86 8 -54 1 -66 -2 -75 -19z"/>
<path d="M7995 6373 c-22 -2 -50 -6 -62 -8 l-23 -5 0 -1515 c0 -1432 1 -1515
18 -1524 20 -10 131 -9 150 2 9 7 12 322 12 1523 l0 1514 -26 10 c-14 6 -26 9
-27 8 -1 -1 -20 -3 -42 -5z"/>
<path d="M967 6363 c-4 -3 -7 -691 -7 -1528 l0 -1521 120 0 c79 1 123 5 131
13 10 10 12 345 12 1506 0 821 -3 1503 -7 1515 -7 21 -12 22 -125 22 -65 0
-121 -3 -124 -7z"/>
<path d="M1390 6360 c-12 -7 -14 -207 -15 -1506 0 -993 3 -1505 10 -1518 12
-25 88 -35 101 -14 8 13 13 2980 6 3026 -4 19 -11 22 -46 22 -22 0 -48 -4 -56
-10z"/>
<path d="M3113 6363 c-10 -4 -13 -317 -13 -1518 l0 -1514 21 -11 c16 -9 24 -8
38 4 16 14 17 112 16 1518 0 827 -4 1509 -8 1516 -8 12 -32 15 -54 5z"/>
<path d="M3920 6360 c-13 -8 -15 -194 -15 -1513 0 -1318 2 -1505 15 -1518 20
-19 85 -21 101 -3 18 22 16 3023 -3 3035 -18 12 -79 11 -98 -1z"/>
<path d="M5811 6352 c-12 -23 -12 -3020 0 -3028 22 -13 59 -13 73 1 13 13 15
191 15 1517 0 1067 -3 1506 -11 1515 -16 19 -66 16 -77 -5z"/>
<path d="M7773 6363 c-10 -4 -13 -317 -13 -1518 0 -1198 3 -1515 13 -1522 18
-15 49 -12 68 6 15 15 17 132 17 1511 0 1329 -2 1497 -16 1513 -15 16 -43 21
-69 10z"/>
<path d="M4139 3200 c-9 -5 -30 -11 -48 -12 -17 -1 -31 -6 -31 -10 0 -4 -4 -8
-10 -8 -17 0 -90 -34 -90 -42 0 -5 -6 -8 -13 -8 -14 0 -81 -63 -117 -110 -30
-40 -54 -92 -88 -199 -13 -39 -9 -248 5 -306 10 -40 51 -131 75 -170 21 -33
110 -115 124 -115 8 0 14 -4 14 -8 0 -11 93 -52 145 -65 67 -16 216 -20 275
-6 154 34 273 131 328 268 27 66 27 71 2 71 -11 0 -20 4 -20 9 0 6 -21 13 -47
17 -27 3 -53 11 -60 16 -6 5 -28 8 -49 6 -29 -2 -41 -9 -55 -33 -10 -16 -18
-36 -18 -42 -1 -12 -25 -44 -59 -79 -7 -8 -20 -14 -28 -14 -8 0 -14 -4 -14 -8
0 -11 -82 -32 -123 -32 -32 0 -101 20 -113 33 -4 4 -14 7 -23 7 -18 0 -91 79
-91 98 0 7 -8 25 -17 39 -26 39 -26 307 0 346 9 14 17 33 17 42 0 32 97 115
135 115 8 0 15 5 15 10 0 18 135 12 182 -9 53 -22 118 -83 118 -110 0 -11 8
-25 18 -30 20 -11 140 -3 148 10 3 5 21 9 39 9 29 0 36 4 41 26 4 14 2 30 -5
37 -6 6 -11 17 -11 25 0 18 -46 79 -95 125 -44 42 -152 97 -190 97 -13 0 -27
5 -30 10 -8 13 -214 13 -236 0z"/>
<path d="M5280 3200 c-8 -5 -27 -10 -41 -10 -15 0 -40 -7 -55 -15 -16 -8 -37
-15 -46 -15 -10 0 -18 -3 -18 -8 0 -4 -12 -13 -27 -19 -16 -7 -49 -34 -75 -60
-69 -71 -78 -81 -78 -91 0 -5 -7 -15 -15 -22 -8 -7 -15 -21 -15 -31 0 -11 -4
-19 -10 -19 -5 0 -10 -10 -10 -22 0 -13 -7 -36 -15 -52 -21 -41 -22 -323 0
-352 8 -10 15 -29 15 -41 0 -12 5 -25 10 -28 6 -3 10 -15 10 -26 0 -11 7 -22
15 -25 8 -4 15 -13 15 -22 0 -41 200 -192 255 -192 8 0 15 -4 15 -8 0 -4 17
-9 38 -11 20 -1 62 -5 92 -9 63 -8 207 2 265 19 52 16 136 59 156 81 9 10 19
18 23 18 28 0 136 150 136 189 0 9 5 22 11 28 6 6 13 26 15 44 3 19 9 50 14
69 16 67 -5 278 -31 305 -5 5 -9 17 -9 26 0 20 -32 79 -42 79 -5 0 -8 6 -8 13
0 7 -9 20 -19 29 -10 9 -23 22 -27 30 -12 18 -101 80 -139 97 -16 7 -43 19
-58 27 -16 8 -41 14 -57 14 -16 0 -32 5 -35 10 -8 13 -235 13 -255 0z m239
-195 c24 -9 60 -28 80 -43 32 -24 44 -36 81 -79 5 -7 10 -18 10 -26 0 -7 4
-17 9 -23 27 -27 31 -250 6 -325 -9 -27 -21 -49 -26 -49 -5 0 -9 -6 -9 -14 0
-22 -59 -76 -113 -104 -47 -24 -63 -27 -156 -27 -74 0 -106 4 -109 13 -2 6
-10 12 -18 12 -8 0 -24 6 -36 13 -28 15 -98 86 -98 98 0 5 -4 17 -9 27 -36 66
-41 89 -41 187 0 72 5 111 15 131 8 16 15 37 15 47 0 9 5 17 10 17 6 0 10 7
10 15 0 14 53 75 65 75 3 0 18 11 33 25 15 14 37 25 49 25 12 0 25 5 28 10 10
15 155 12 204 -5z"/>
<path d="M1885 3182 c-5 -4 -11 -16 -13 -27 -2 -11 -10 -30 -18 -42 -8 -12
-14 -27 -14 -34 0 -11 -72 -196 -91 -234 -6 -12 -11 -27 -13 -35 -1 -8 -7 -25
-14 -37 -7 -12 -12 -31 -12 -42 0 -12 -4 -21 -10 -21 -5 0 -10 -10 -10 -22 0
-13 -7 -32 -15 -42 -8 -11 -15 -28 -15 -38 0 -10 -4 -18 -10 -18 -5 0 -10 -12
-10 -26 0 -14 -7 -32 -15 -40 -8 -9 -15 -24 -15 -34 0 -10 -4 -22 -10 -25 -5
-3 -10 -17 -10 -29 0 -13 -7 -29 -15 -36 -8 -7 -15 -23 -15 -36 0 -13 -4 -24
-10 -24 -5 0 -10 -9 -10 -19 0 -11 -6 -32 -14 -48 -33 -67 -40 -88 -37 -125 1
-16 13 -18 109 -18 121 0 134 6 147 68 3 17 11 32 16 32 5 0 9 10 9 23 0 13 9
42 20 65 l20 42 215 0 c201 0 215 -1 215 -18 0 -10 7 -27 15 -38 8 -10 15 -27
15 -37 0 -9 4 -25 9 -35 5 -9 17 -36 27 -59 l19 -43 113 0 c100 0 112 2 113
18 2 30 -2 46 -27 99 -13 28 -24 61 -24 72 0 12 -4 21 -9 21 -5 0 -12 10 -16
23 -8 27 -22 62 -41 100 -8 16 -14 35 -14 43 0 8 -4 22 -9 32 -10 20 -35 77
-49 112 -5 14 -17 42 -26 63 -9 21 -16 44 -16 52 0 7 -5 15 -10 17 -6 2 -12
13 -13 26 0 12 -5 22 -9 22 -4 0 -10 16 -14 35 -3 19 -10 35 -15 35 -5 0 -9 7
-9 15 0 8 -7 31 -16 52 -9 21 -21 49 -26 63 -12 31 -30 73 -51 123 l-17 37
-122 0 c-68 0 -127 -4 -133 -8z m167 -357 c11 -27 24 -59 28 -70 5 -11 16 -42
26 -70 10 -27 21 -55 25 -60 4 -6 9 -24 11 -40 l3 -30 -123 -2 c-137 -2 -146
3 -118 58 9 18 16 40 16 51 0 10 5 18 10 18 6 0 10 10 10 23 0 13 7 32 15 43
8 10 15 29 15 42 0 12 5 22 10 22 6 0 10 9 10 19 0 67 34 64 62 -4z"/>
</g>
</svg>
